<svg xmlns="http://www.w3.org/2000/svg" version="1.1" xmlns:xlink="http://www.w3.org/1999/xlink" xmlns:svgjs="http://svgjs.com/svgjs" width="1440" height="560" preserveAspectRatio="none" viewBox="0 0 1440 560"><g mask="url(&quot;#SvgjsMask1007&quot;)" fill="none"><rect width="1440" height="560" x="0" y="0" fill="#0e2a47"></rect><path d="M0,492.332C93.164,492.954,178.748,450.373,258.698,402.542C340.831,353.405,422.232,297.887,466.688,213.129C512.388,126.001,517.285,24.9,508.156,-73.062C498.67,-174.86,474.029,-275.896,413.444,-358.251C349.912,-444.611,264.266,-519.754,160.295,-545.916C57.881,-571.687,-44.497,-526.264,-146.569,-499.168C-251.503,-471.312,-374.005,-467.732,-444.679,-385.316C-515.297,-302.966,-526.705,-180.969,-511.551,-73.55C-498.187,21.182,-412.131,83.272,-366.696,167.465C-325.249,244.269,-321.811,341.227,-256.486,399.101C-186.988,460.672,-92.847,491.712,0,492.332" fill="#0b2239"></path><path d="M1440 1073.684C1535.49 1065.182 1632.4180000000001 1032.221 1699.403 963.6379999999999 1761.2939999999999 900.27 1742.749 795.208 1786.955 718.4490000000001 1838.266 629.353 1984.609 585.372 1976.267 482.896 1968.095 382.51099999999997 1831.929 350.95 1752.0439999999999 289.612 1689.039 241.235 1632.626 185.79500000000002 1557.136 161.072 1480.007 135.812 1395.953 122.10300000000001 1318.96 147.774 1243.125 173.058 1193.396 240.55599999999998 1140.085 300.123 1085.915 360.649 1033.961 421.363 1005.8879999999999 497.584 972.6469999999999 587.837 938.598 684.551 964.365 777.215 991.6410000000001 875.307 1062.704 958.781 1149.108 1012.637 1234.926 1066.128 1339.274 1082.653 1440 1073.684" fill="#113255"></path></g><defs><mask id="SvgjsMask1007"><rect width="1440" height="560" fill="#ffffff"></rect></mask></defs></svg>